<?xml version="1.0" standalone="no"?>
<!DOCTYPE svg PUBLIC "-//W3C//DTD SVG 20010904//EN"
 "http://www.w3.org/TR/2001/REC-SVG-20010904/DTD/svg10.dtd">
<svg version="1.0" xmlns="http://www.w3.org/2000/svg"
 width="700.000000pt" height="700.000000pt" viewBox="0 0 700.000000 700.000000"
 preserveAspectRatio="xMidYMid meet">
<metadata>
Created by potrace 1.14, written by Peter Selinger 2001-2017
</metadata>
<g transform="translate(0.000000,700.000000) scale(0.100000,-0.100000)"
fill="#000000" stroke="none">
<path d="M3845 5467 c-90 -27 -173 -96 -210 -173 -18 -38 -87 -289 -276 -999
-49 -187 -96 -362 -104 -390 -15 -53 -104 -382 -135 -500 -10 -38 -41 -155
-69 -259 -28 -104 -53 -199 -56 -210 -2 -12 -27 -104 -55 -206 -28 -102 -64
-234 -80 -295 -16 -60 -47 -177 -69 -260 -67 -245 -73 -276 -68 -341 8 -120
86 -231 197 -283 45 -21 70 -25 140 -26 72 0 94 4 142 27 81 38 160 122 181
193 5 18 103 380 112 415 35 133 78 292 86 316 5 17 11 40 13 50 2 10 14 55
26 99 12 44 37 136 55 205 19 69 43 161 55 205 66 246 142 532 145 545 2 8 40
150 85 315 45 165 83 307 85 315 3 15 43 163 156 585 32 121 64 239 70 263 40
147 -46 324 -189 389 -62 29 -176 39 -237 20z"/>
<path d="M2160 4848 c-107 -19 -120 -30 -686 -596 -295 -295 -547 -554 -560
-574 -70 -110 -63 -272 15 -377 32 -42 1043 -1054 1087 -1088 70 -52 185 -77
278 -58 90 18 193 103 234 194 47 103 33 251 -33 337 -14 19 -201 209 -416
424 l-390 390 405 405 c458 459 458 458 461 596 5 178 -118 323 -293 347 -31
4 -77 4 -102 0z"/>
<path d="M4707 4843 c-105 -23 -188 -92 -234 -193 -21 -44 -26 -71 -27 -140
-1 -145 -6 -138 460 -605 l405 -406 -397 -396 c-218 -219 -407 -413 -420 -433
-49 -76 -64 -195 -35 -288 40 -131 178 -232 319 -233 75 -1 152 23 207 65 74
57 1087 1080 1108 1120 60 112 56 244 -9 348 -13 20 -266 279 -561 574 -583
583 -579 579 -703 593 -35 4 -79 2 -113 -6z"/>
</g>
</svg>
