<?xml version="1.0" standalone="no"?>
<!DOCTYPE svg PUBLIC "-//W3C//DTD SVG 20010904//EN"
 "http://www.w3.org/TR/2001/REC-SVG-20010904/DTD/svg10.dtd">
<svg version="1.0" xmlns="http://www.w3.org/2000/svg"
 width="600.000000pt" height="600.000000pt" viewBox="0 0 600.000000 600.000000"
 preserveAspectRatio="xMidYMid meet">
<metadata>
Created by potrace 1.14, written by Peter Selinger 2001-2017
</metadata>
<g transform="translate(0.000000,600.000000) scale(0.100000,-0.100000)"
fill="#000000" stroke="none">
<path d="M2873 4695 c-113 -31 -219 -106 -283 -200 -29 -42 -280 -474 -280
-481 0 -3 -8 -17 -19 -32 -18 -26 -302 -517 -356 -617 -15 -27 -31 -54 -35
-60 -7 -9 -263 -453 -294 -510 -6 -11 -16 -27 -22 -35 -6 -8 -25 -40 -41 -70
-16 -30 -42 -74 -56 -97 -15 -24 -27 -45 -27 -48 0 -2 -27 -49 -59 -104 -33
-55 -70 -119 -83 -142 -13 -23 -27 -49 -33 -58 -70 -115 -146 -256 -160 -296
-9 -27 -19 -86 -22 -130 -16 -239 146 -457 382 -514 68 -17 2961 -18 3027 -1
267 68 431 323 378 588 -16 79 -34 113 -292 557 -247 427 -241 417 -323 560
-85 150 -122 194 -210 254 -101 69 -253 97 -378 72 -110 -24 -224 -95 -291
-184 -20 -27 -123 -199 -221 -372 -25 -44 -239 -414 -264 -457 l-16 -27 -186
-3 c-102 -2 -198 -1 -212 2 l-26 5 72 126 c40 70 79 134 86 143 7 9 10 16 7
16 -4 0 1 12 12 28 10 15 88 146 172 292 84 146 176 306 205 355 29 50 67 115
84 145 18 30 36 62 41 70 82 133 296 518 316 568 50 125 39 290 -29 416 -51
94 -149 179 -259 224 -79 32 -224 40 -305 17z"/>
</g>
</svg>
